<svg width="289" height="289" viewBox="0 0 289 289" fill="none" xmlns="http://www.w3.org/2000/svg">
<path d="M111.357 214.115V231.519C111.357 233.441 112.92 235 114.845 235H128.793C129.718 235 130.605 234.633 131.259 233.98C131.913 233.328 132.281 232.442 132.281 231.519V214.115H139.255V231.519C139.255 233.441 140.817 235 142.742 235H156.691C157.616 235 158.503 234.633 159.157 233.98C159.811 233.328 160.179 232.442 160.179 231.519V214.115H161.35C189.137 214.115 209 199.733 209 174.852C209 153.94 194.953 142.509 178.508 140.88V139.655C192.038 136.285 201.984 126.094 201.984 109.163C201.984 87.8331 185.942 74.8846 161.462 74.8846H160.179V57.4808C160.179 56.5576 159.811 55.6723 159.157 55.0195C158.503 54.3667 157.616 54 156.691 54H142.742C141.818 54 140.931 54.3667 140.277 55.0195C139.623 55.6723 139.255 56.5576 139.255 57.4808V74.8846H131.262V57.4808C131.262 56.5576 130.895 55.6723 130.241 55.0195C129.587 54.3667 128.7 54 127.775 54H114.845C113.92 54 113.033 54.3667 112.379 55.0195C111.725 55.6723 111.357 56.5576 111.357 57.4808V74.8846L83.4872 75.0378C82.5624 75.0378 81.6754 75.4045 81.0214 76.0573C80.3674 76.71 80 77.5954 80 78.5185V92.2885C80 94.1959 81.5344 95.7692 83.4593 95.7692L93.9908 95.6996C96.7533 95.718 99.3964 96.8263 101.343 98.7826C103.29 100.739 104.383 103.384 104.383 106.142V182.788C104.383 185.558 103.281 188.214 101.319 190.172C99.3567 192.131 96.6957 193.231 93.9211 193.231L83.4872 193.384C82.5624 193.384 81.6754 193.751 81.0214 194.403C80.3674 195.056 80 195.942 80 196.865V210.788C80 212.709 81.5623 214.269 83.4872 214.269L111.357 214.115ZM131.262 95.5882H155.241C167.878 95.5882 175.299 102.522 175.299 113.855C175.299 125.982 167.279 132.819 149.117 132.819H131.262V95.5882ZM131.262 151.991H156.929C172.788 151.991 181.423 160.066 181.423 173.209C181.423 186.478 172.691 193.398 151.321 193.398H131.262V152.005V151.991Z" fill="#6366F1"/>
<mask id="path-2-inside-1_256_6" fill="white">
<path d="M284.752 289H268.166C265.819 289 263.917 287.098 263.917 284.751C263.917 277.572 258.076 271.734 250.9 271.734C243.723 271.734 237.885 277.574 237.885 284.751C237.885 287.098 235.982 289 233.635 289H215.837C213.489 289 211.587 287.098 211.587 284.751C211.587 277.572 205.747 271.734 198.571 271.734C191.394 271.734 185.555 277.574 185.555 284.751C185.555 287.098 183.653 289 181.306 289H163.508C161.16 289 159.258 287.098 159.258 284.751C159.258 277.572 153.42 271.734 146.243 271.734C139.067 271.734 133.226 277.574 133.226 284.751C133.226 287.098 131.324 289 128.977 289H111.18C108.833 289 106.931 287.098 106.931 284.751C106.931 277.572 101.09 271.734 93.914 271.734C86.7376 271.734 80.8989 277.574 80.8989 284.751C80.8989 287.098 78.9968 289 76.6494 289H58.8511C56.5038 289 54.6017 287.098 54.6017 284.751C54.6017 277.572 48.763 271.734 41.5866 271.734C34.4101 271.734 28.5697 277.574 28.5697 284.751C28.5697 287.098 26.6677 289 24.3203 289H4.24942C1.90204 289 0 287.098 0 284.751V266.422C0 264.075 1.90204 262.173 4.24942 262.173C11.4276 262.173 17.2646 256.334 17.2646 249.158C17.2646 241.981 11.4259 236.141 4.24942 236.141C1.90204 236.141 0 234.239 0 231.891V214.095C0 211.748 1.90204 209.846 4.24942 209.846C11.4276 209.846 17.2646 204.005 17.2646 196.829C17.2646 189.652 11.4259 183.814 4.24942 183.814C1.90204 183.814 0 181.912 0 179.564V161.766C0 159.419 1.90204 157.517 4.24942 157.517C11.4276 157.517 17.2646 151.676 17.2646 144.5C17.2646 137.324 11.4276 131.483 4.24942 131.483C1.90204 131.483 0 129.581 0 127.234V109.437C0 107.09 1.90204 105.188 4.24942 105.188C11.4276 105.188 17.2646 99.3493 17.2646 92.1729C17.2646 84.9965 11.4276 79.1544 4.24942 79.1544C1.90204 79.1544 0 77.2524 0 74.905V57.1085C0 54.7612 1.90204 52.8591 4.24942 52.8591C11.4276 52.8591 17.2646 47.0188 17.2646 39.8424C17.2646 32.666 11.4276 26.8273 4.24942 26.8273C1.90204 26.8273 0 24.9253 0 22.5779V4.2494C0 1.90203 1.90374 0 4.24942 0H24.3186C26.666 0 28.568 1.90203 28.568 4.2494C28.568 11.4275 34.4084 17.2662 41.5849 17.2662C48.7613 17.2662 54.6 11.4258 54.6 4.2494C54.6 1.90203 56.5021 0 58.8494 0H76.6477C78.9951 0 80.8972 1.90203 80.8972 4.2494C80.8972 11.4275 86.7359 17.2662 93.9123 17.2662C101.089 17.2662 106.929 11.4258 106.929 4.2494C106.929 1.90203 108.831 0 111.179 0H128.975C131.323 0 133.225 1.90203 133.225 4.2494C133.225 11.4275 139.065 17.2662 146.241 17.2662C153.418 17.2662 159.257 11.4258 159.257 4.2494C159.257 1.90203 161.159 0 163.506 0H181.304C183.652 0 185.554 1.90203 185.554 4.2494C185.554 11.4275 191.392 17.2662 198.569 17.2662C205.745 17.2662 211.586 11.4258 211.586 4.2494C211.586 1.90203 213.488 0 215.835 0H233.633C235.981 0 237.883 1.90203 237.883 4.2494C237.883 11.4275 243.722 17.2662 250.898 17.2662C258.074 17.2662 263.915 11.4258 263.915 4.2494C263.915 1.90203 265.817 0 268.164 0H284.751C287.098 0 289 1.90203 289 4.2494V22.5779C289 24.9253 287.098 26.8273 284.751 26.8273C277.572 26.8273 271.735 32.666 271.735 39.8424C271.735 47.0188 277.574 52.8591 284.751 52.8591C287.098 52.8591 289 54.7612 289 57.1085V74.905C289 77.2524 287.098 79.1544 284.751 79.1544C277.572 79.1544 271.735 84.9948 271.735 92.1712C271.735 99.3476 277.574 105.186 284.751 105.186C287.098 105.186 289 107.088 289 109.436V127.234C289 129.581 287.098 131.483 284.751 131.483C277.572 131.483 271.735 137.322 271.735 144.498C271.735 151.675 277.574 157.515 284.751 157.515C287.098 157.515 289 159.417 289 161.764V179.563C289 181.91 287.098 183.812 284.751 183.812C277.572 183.812 271.735 189.651 271.735 196.827C271.735 204.003 277.574 209.844 284.751 209.844C287.098 209.844 289 211.746 289 214.093V231.89C289 234.237 287.098 236.139 284.751 236.139C277.572 236.139 271.735 241.98 271.735 249.156C271.735 256.332 277.574 262.171 284.751 262.171C287.098 262.171 289 264.073 289 266.42V284.749C289.002 287.098 287.1 289 284.752 289ZM271.994 280.501H280.503V270.25C270.668 268.271 263.238 259.565 263.238 249.158C263.238 238.748 270.668 230.042 280.503 228.064V217.923C270.668 215.944 263.238 207.238 263.238 196.829C263.238 186.421 270.668 177.715 280.503 175.736V165.594C270.668 163.615 263.238 154.909 263.238 144.5C263.238 134.092 270.668 125.386 280.503 123.408V113.265C270.668 111.287 263.238 102.581 263.238 92.1729C263.238 81.7635 270.668 73.0574 280.503 71.0789V60.9381C270.668 58.9596 263.238 50.2534 263.238 39.8441C263.238 29.4364 270.668 20.7303 280.503 18.7518V8.4988H271.994C270.017 18.3353 261.309 25.765 250.9 25.765C240.49 25.765 231.784 18.3353 229.807 8.4988H219.665C217.688 18.3353 208.98 25.765 198.571 25.765C188.161 25.765 179.455 18.3353 177.478 8.4988H167.336C165.359 18.3353 156.653 25.765 146.243 25.765C135.834 25.765 127.126 18.3353 125.147 8.4988H115.006C113.03 18.3353 104.322 25.765 93.9123 25.765C83.5029 25.765 74.7967 18.3353 72.8198 8.4988H62.6773C60.7005 18.3353 51.9943 25.765 41.5849 25.765C31.1755 25.765 22.4676 18.3353 20.4907 8.4988H8.49885V18.7501C18.3337 20.7286 25.7634 29.4347 25.7634 39.8424C25.7634 50.2517 18.3337 58.9579 8.49885 60.9364V71.0772C18.3337 73.0557 25.7634 81.7618 25.7634 92.1712C25.7634 102.579 18.3337 111.285 8.49885 113.264V123.406C18.3337 125.384 25.7634 134.091 25.7634 144.498C25.7634 154.908 18.3337 163.614 8.49885 165.592V175.735C18.3337 177.713 25.7634 186.419 25.7634 196.827C25.7634 207.236 18.3337 215.943 8.49885 217.921V228.062C18.3337 230.04 25.7634 238.747 25.7634 249.156C25.7634 259.564 18.3337 268.27 8.49885 270.248V280.499H20.4907C22.4676 270.663 31.1755 263.233 41.5849 263.233C51.9943 263.233 60.7005 270.663 62.6773 280.499H72.8198C74.7967 270.663 83.5029 263.233 93.9123 263.233C104.322 263.233 113.03 270.663 115.006 280.499H125.147C127.124 270.663 135.832 263.233 146.241 263.233C156.651 263.233 165.357 270.663 167.334 280.499H177.476C179.453 270.663 188.159 263.233 198.569 263.233C208.978 263.233 217.686 270.663 219.663 280.499H229.806C231.782 270.663 240.489 263.233 250.898 263.233C261.307 263.233 270.017 270.665 271.994 280.501ZM249.157 253.407H39.8443C37.4969 253.407 35.5949 251.505 35.5949 249.158V39.8424C35.5949 37.495 37.4969 35.593 39.8443 35.593H249.159C251.506 35.593 253.409 37.495 253.409 39.8424V249.158C253.407 251.505 251.505 253.407 249.157 253.407ZM44.0937 244.908H244.91V44.0918H44.0937V244.908Z"/>
</mask>
<path d="M284.752 289H268.166C265.819 289 263.917 287.098 263.917 284.751C263.917 277.572 258.076 271.734 250.9 271.734C243.723 271.734 237.885 277.574 237.885 284.751C237.885 287.098 235.982 289 233.635 289H215.837C213.489 289 211.587 287.098 211.587 284.751C211.587 277.572 205.747 271.734 198.571 271.734C191.394 271.734 185.555 277.574 185.555 284.751C185.555 287.098 183.653 289 181.306 289H163.508C161.16 289 159.258 287.098 159.258 284.751C159.258 277.572 153.42 271.734 146.243 271.734C139.067 271.734 133.226 277.574 133.226 284.751C133.226 287.098 131.324 289 128.977 289H111.18C108.833 289 106.931 287.098 106.931 284.751C106.931 277.572 101.09 271.734 93.914 271.734C86.7376 271.734 80.8989 277.574 80.8989 284.751C80.8989 287.098 78.9968 289 76.6494 289H58.8511C56.5038 289 54.6017 287.098 54.6017 284.751C54.6017 277.572 48.763 271.734 41.5866 271.734C34.4101 271.734 28.5697 277.574 28.5697 284.751C28.5697 287.098 26.6677 289 24.3203 289H4.24942C1.90204 289 0 287.098 0 284.751V266.422C0 264.075 1.90204 262.173 4.24942 262.173C11.4276 262.173 17.2646 256.334 17.2646 249.158C17.2646 241.981 11.4259 236.141 4.24942 236.141C1.90204 236.141 0 234.239 0 231.891V214.095C0 211.748 1.90204 209.846 4.24942 209.846C11.4276 209.846 17.2646 204.005 17.2646 196.829C17.2646 189.652 11.4259 183.814 4.24942 183.814C1.90204 183.814 0 181.912 0 179.564V161.766C0 159.419 1.90204 157.517 4.24942 157.517C11.4276 157.517 17.2646 151.676 17.2646 144.5C17.2646 137.324 11.4276 131.483 4.24942 131.483C1.90204 131.483 0 129.581 0 127.234V109.437C0 107.09 1.90204 105.188 4.24942 105.188C11.4276 105.188 17.2646 99.3493 17.2646 92.1729C17.2646 84.9965 11.4276 79.1544 4.24942 79.1544C1.90204 79.1544 0 77.2524 0 74.905V57.1085C0 54.7612 1.90204 52.8591 4.24942 52.8591C11.4276 52.8591 17.2646 47.0188 17.2646 39.8424C17.2646 32.666 11.4276 26.8273 4.24942 26.8273C1.90204 26.8273 0 24.9253 0 22.5779V4.2494C0 1.90203 1.90374 0 4.24942 0H24.3186C26.666 0 28.568 1.90203 28.568 4.2494C28.568 11.4275 34.4084 17.2662 41.5849 17.2662C48.7613 17.2662 54.6 11.4258 54.6 4.2494C54.6 1.90203 56.5021 0 58.8494 0H76.6477C78.9951 0 80.8972 1.90203 80.8972 4.2494C80.8972 11.4275 86.7359 17.2662 93.9123 17.2662C101.089 17.2662 106.929 11.4258 106.929 4.2494C106.929 1.90203 108.831 0 111.179 0H128.975C131.323 0 133.225 1.90203 133.225 4.2494C133.225 11.4275 139.065 17.2662 146.241 17.2662C153.418 17.2662 159.257 11.4258 159.257 4.2494C159.257 1.90203 161.159 0 163.506 0H181.304C183.652 0 185.554 1.90203 185.554 4.2494C185.554 11.4275 191.392 17.2662 198.569 17.2662C205.745 17.2662 211.586 11.4258 211.586 4.2494C211.586 1.90203 213.488 0 215.835 0H233.633C235.981 0 237.883 1.90203 237.883 4.2494C237.883 11.4275 243.722 17.2662 250.898 17.2662C258.074 17.2662 263.915 11.4258 263.915 4.2494C263.915 1.90203 265.817 0 268.164 0H284.751C287.098 0 289 1.90203 289 4.2494V22.5779C289 24.9253 287.098 26.8273 284.751 26.8273C277.572 26.8273 271.735 32.666 271.735 39.8424C271.735 47.0188 277.574 52.8591 284.751 52.8591C287.098 52.8591 289 54.7612 289 57.1085V74.905C289 77.2524 287.098 79.1544 284.751 79.1544C277.572 79.1544 271.735 84.9948 271.735 92.1712C271.735 99.3476 277.574 105.186 284.751 105.186C287.098 105.186 289 107.088 289 109.436V127.234C289 129.581 287.098 131.483 284.751 131.483C277.572 131.483 271.735 137.322 271.735 144.498C271.735 151.675 277.574 157.515 284.751 157.515C287.098 157.515 289 159.417 289 161.764V179.563C289 181.91 287.098 183.812 284.751 183.812C277.572 183.812 271.735 189.651 271.735 196.827C271.735 204.003 277.574 209.844 284.751 209.844C287.098 209.844 289 211.746 289 214.093V231.89C289 234.237 287.098 236.139 284.751 236.139C277.572 236.139 271.735 241.98 271.735 249.156C271.735 256.332 277.574 262.171 284.751 262.171C287.098 262.171 289 264.073 289 266.42V284.749C289.002 287.098 287.1 289 284.752 289ZM271.994 280.501H280.503V270.25C270.668 268.271 263.238 259.565 263.238 249.158C263.238 238.748 270.668 230.042 280.503 228.064V217.923C270.668 215.944 263.238 207.238 263.238 196.829C263.238 186.421 270.668 177.715 280.503 175.736V165.594C270.668 163.615 263.238 154.909 263.238 144.5C263.238 134.092 270.668 125.386 280.503 123.408V113.265C270.668 111.287 263.238 102.581 263.238 92.1729C263.238 81.7635 270.668 73.0574 280.503 71.0789V60.9381C270.668 58.9596 263.238 50.2534 263.238 39.8441C263.238 29.4364 270.668 20.7303 280.503 18.7518V8.4988H271.994C270.017 18.3353 261.309 25.765 250.9 25.765C240.49 25.765 231.784 18.3353 229.807 8.4988H219.665C217.688 18.3353 208.98 25.765 198.571 25.765C188.161 25.765 179.455 18.3353 177.478 8.4988H167.336C165.359 18.3353 156.653 25.765 146.243 25.765C135.834 25.765 127.126 18.3353 125.147 8.4988H115.006C113.03 18.3353 104.322 25.765 93.9123 25.765C83.5029 25.765 74.7967 18.3353 72.8198 8.4988H62.6773C60.7005 18.3353 51.9943 25.765 41.5849 25.765C31.1755 25.765 22.4676 18.3353 20.4907 8.4988H8.49885V18.7501C18.3337 20.7286 25.7634 29.4347 25.7634 39.8424C25.7634 50.2517 18.3337 58.9579 8.49885 60.9364V71.0772C18.3337 73.0557 25.7634 81.7618 25.7634 92.1712C25.7634 102.579 18.3337 111.285 8.49885 113.264V123.406C18.3337 125.384 25.7634 134.091 25.7634 144.498C25.7634 154.908 18.3337 163.614 8.49885 165.592V175.735C18.3337 177.713 25.7634 186.419 25.7634 196.827C25.7634 207.236 18.3337 215.943 8.49885 217.921V228.062C18.3337 230.04 25.7634 238.747 25.7634 249.156C25.7634 259.564 18.3337 268.27 8.49885 270.248V280.499H20.4907C22.4676 270.663 31.1755 263.233 41.5849 263.233C51.9943 263.233 60.7005 270.663 62.6773 280.499H72.8198C74.7967 270.663 83.5029 263.233 93.9123 263.233C104.322 263.233 113.03 270.663 115.006 280.499H125.147C127.124 270.663 135.832 263.233 146.241 263.233C156.651 263.233 165.357 270.663 167.334 280.499H177.476C179.453 270.663 188.159 263.233 198.569 263.233C208.978 263.233 217.686 270.663 219.663 280.499H229.806C231.782 270.663 240.489 263.233 250.898 263.233C261.307 263.233 270.017 270.665 271.994 280.501ZM249.157 253.407H39.8443C37.4969 253.407 35.5949 251.505 35.5949 249.158V39.8424C35.5949 37.495 37.4969 35.593 39.8443 35.593H249.159C251.506 35.593 253.409 37.495 253.409 39.8424V249.158C253.407 251.505 251.505 253.407 249.157 253.407ZM44.0937 244.908H244.91V44.0918H44.0937V244.908Z" fill="#6366F1" stroke="#6366F1" stroke-width="2" mask="url(#path-2-inside-1_256_6)"/>
</svg>
